<svg width="31" height="36" viewBox="0 0 31 36" fill="none" xmlns="http://www.w3.org/2000/svg">
<path d="M2.9735 7.26375V20.2733C2.9735 27.3555 8.58225 33.0955 15.5 33.0955C22.4178 33.0955 28.0265 27.3555 28.0265 20.2733V7.27075L15.4247 3.0305L2.9735 7.26375ZM15.4212 0.5L30.375 5.5295V20.2733C30.375 28.682 23.7145 35.5 15.5 35.5C7.2855 35.5 0.625 28.682 0.625 20.2733V5.5295L15.4212 0.5ZM23.1545 11.8488C23.0403 11.7438 22.9061 11.663 22.7599 11.611C22.6138 11.5591 22.4587 11.5371 22.3038 11.5464C22.149 11.5557 21.9976 11.5961 21.8587 11.6652C21.7199 11.7343 21.5963 11.8306 21.4955 11.9485L13.9425 20.6442L9.0635 15.2455C8.96035 15.1299 8.835 15.0363 8.69491 14.9702C8.55483 14.904 8.40288 14.8668 8.2481 14.8606C8.09331 14.8544 7.93886 14.8793 7.79394 14.9341C7.64901 14.9888 7.51657 15.0721 7.4045 15.179C7.17584 15.3988 7.04133 15.6986 7.02925 16.0156C7.01718 16.3325 7.12848 16.6417 7.33975 16.8783L13.0972 23.2482C13.2069 23.3715 13.3417 23.4699 13.4926 23.5367C13.6434 23.6035 13.8069 23.6372 13.9719 23.6356C14.1368 23.6339 14.2996 23.5969 14.4491 23.5271C14.5985 23.4573 14.7313 23.3562 14.8385 23.2308L23.2507 13.5462C23.4575 13.3059 23.563 12.9947 23.5451 12.6781C23.5271 12.3615 23.3871 12.0642 23.1545 11.8488Z" fill="#405AFF"/>
</svg>
